<svg width="30" height="30" fill="none" xmlns="http://www.w3.org/2000/svg"><circle cx="15" cy="15" r="14.5" stroke="#7045C4"/><path fill-rule="evenodd" clip-rule="evenodd" d="M13.834 4.617c-1.293-.082-2.277.973-2.277 2.167l-.001 7.973h-1.68a1.2 1.2 0 100 2.4h1.68v1.404H9.89a1.2 1.2 0 000 2.4h1.663v3.224a1.2 1.2 0 102.4 0v-3.224h3.813a1.2 1.2 0 100-2.4h-3.812v-1.434c1.894-.145 3.6-.748 4.905-1.728 1.598-1.201 2.597-2.99 2.45-5.08-.122-1.755-.974-3.165-2.35-4.135-1.338-.943-3.119-1.44-5.126-1.567zm.123 10.101c1.42-.137 2.61-.598 3.46-1.237 1.059-.795 1.58-1.844 1.5-2.993-.07-1.001-.524-1.767-1.34-2.342-.81-.571-2.018-.978-3.62-1.113v.065c.002.029.003.058.003.088l-.003 7.532z" fill="#7045C4"/></svg>