<svg width="26" height="26" fill="none" xmlns="http://www.w3.org/2000/svg"><circle cx="13" cy="13" r="12.5" stroke="#7045C4"/><path fill-rule="evenodd" clip-rule="evenodd" d="M11.99 4c-1.12-.072-1.974.842-1.974 1.877v6.91H8.56a1.04 1.04 0 100 2.08h1.456v1.217H8.572a1.04 1.04 0 100 2.08h1.441v2.794a1.04 1.04 0 102.08 0v-2.794h3.304a1.04 1.04 0 000-2.08h-3.303v-1.243c1.641-.125 3.12-.648 4.25-1.497 1.386-1.041 2.252-2.591 2.125-4.402-.107-1.522-.845-2.744-2.038-3.585C15.272 4.54 13.73 4.11 11.99 4zm.106 8.754c1.231-.12 2.263-.519 3-1.073.917-.69 1.369-1.598 1.299-2.594-.06-.867-.453-1.531-1.161-2.03-.702-.494-1.75-.847-3.138-.964v.056c.002.025.003.05.003.076l-.003 6.529z" fill="#7045C4"/></svg>